<?xml version="1.0" encoding="UTF-8"?><!DOCTYPE svg PUBLIC "-//W3C//DTD SVG 1.1//EN" "http://www.w3.org/Graphics/SVG/1.1/DTD/svg11.dtd"><svg xmlns="http://www.w3.org/2000/svg" style="background-color:#fff" version="1.1" viewBox="-0.5 -0.5 322 321"><circle cx="161" cy="160" r="160" fill="none" stroke="#bbb"/><g stroke="#777"><path d="M318.15 183.19l-75.3-159.38m-27.57 285.65l102.44-122.92M84 21.01l156 .98m-159.11.68L3.11 140.33M83.64 22.14l233.72 161.72M81.74 22.98L49.26 272.02m33.57-249.2l130.34 286.36M240.21 22.89L3.79 141.11M241.81 23.99l-27.62 285.02m26.59-285.42L50.21 272.41M2.67 143.88l45.66 128.24M3.56 143.25l208.87 166.51M3.98 142.27l313.04 42.46M50.95 274.43l161.1 36.14M50.9 273.38l266.2-87.76"/></g><g fill="#000"><circle cx="82" cy="21" r="2"/><circle cx="242" cy="22" r="2"/><circle cx="2" cy="142" r="2"/><circle cx="49" cy="274" r="2"/><circle cx="319" cy="185" r="2"/><circle cx="214" cy="311" r="2"/></g></svg>