<?xml version="1.0" encoding="UTF-8"?><!DOCTYPE svg PUBLIC "-//W3C//DTD SVG 1.1//EN" "http://www.w3.org/Graphics/SVG/1.1/DTD/svg11.dtd"><svg xmlns="http://www.w3.org/2000/svg" style="background-color:#fff" version="1.1" viewBox="-0.5 -0.5 321 322"><circle cx="160" cy="161" r="160" fill="none" stroke="#ddd"/><g stroke="#ccc"><path d="M317.41 184.09L276.59 52.91M84.8 300.12l231.4-113.24M143.88 2.68l130.24 47.64M140.28 3.02L30.72 67.98M143.38 3.45l173.24 181.1M140.87 3.65L6.13 199.35M141.61 3.96L83.39 299.04M274.01 51.14L30.99 68.86M274.78 52.58L84.22 299.42M274.25 51.97L6.75 200.03M275.53 52.94l-62.06 257.12M28.64 70.97L5.36 199.03M29.45 70.95l53.1 228.1M30.85 69.75l285.3 115.5M30.21 70.6l181.58 239.81M6.23 202.58l75.54 96.84M6.76 201.94l204.48 109.12M316.72 187.54L214.28 310.46M84.99 301.16l126.02 10.67"/><circle cx="276" cy="51" r="2" fill="#ccc"/><circle cx="29" cy="69" r="2" fill="#ccc"/><circle cx="83" cy="301" r="2" fill="#ccc"/></g><path stroke="#111" d="M7 200.9l309-14.81M142.44 3.95l70.11 306.1"/><g fill="#000"><circle cx="142" cy="2" r="2"/><circle cx="318" cy="186" r="2"/><circle cx="5" cy="201" r="2"/><circle cx="213" cy="312" r="2"/><circle cx="185.6" cy="192.4" r="2"/></g></svg>