<!DOCTYPE svg PUBLIC "-//W3C//DTD SVG 1.1//EN" "http://www.w3.org/Graphics/SVG/1.1/DTD/svg11.dtd"><svg version="1.1" xmlns="http://www.w3.org/2000/svg" height="7250" width="3200"><style>path{fill:none;stroke:#000;stroke-width:12;stroke-linecap:round;stroke-linejoin:round;}.base{stroke-width:24;stroke-linecap:round;}.arw,use{transform-box:fill-box;transform-origin:center;}.xtri,.xe{stroke:none;fill:#0F0;fill-opacity:0.15;transform:translate(800 70);stroke-width:15;}.xe{stroke:#0F0;}</style><defs><g id="polygons"><g transform="translate(90 124)"><path d="M 0 0 h 500 v 500 h -500 z"/><path class="base" d="M 6 500 h 488"/></g><g transform="translate(800 70)"><path d="M 291 0 583 212 471 554 111 554 0 212 z"/><path class="base" d="M 117 554 h 348"/></g></g><path id="q13" d="M 0 0 500 500" transform="translate(90 124)"/><path id="q24" d="M 0 500 500 0" transform="translate(90 124)"/><path id="p13" d="M 291 0 471 554" transform="translate(800 70)"/><path id="p14" d="M 291 0 111 554" transform="translate(800 70)"/><path id="p24" d="M 583 212 111 554" transform="translate(800 70)"/><path id="p25" d="M 583 212 0 212" transform="translate(800 70)"/><path id="p35" d="M 471 554 0 212" transform="translate(800 70)"/><path id="d12" class="xe" d="M 291 0 583 212" transform="translate(800 70)"/><path id="d23" class="xe" d="M 583 212 471 554" transform="translate(800 70)"/><path id="d45" class="xe" d="M 111 554 0 212" transform="translate(800 70)"/><path id="d15" class="xe" d="M 291 0 0 212" transform="translate(800 70)"/><path id="arw" class="arw" d="M -20 -40 20 0 -20 40" transform="translate(90 124)"/><use href="#arw" id="a12" transform="translate(250 0)"/><use href="#arw" id="a21" transform="translate(250 0)rotate(180)"/><use href="#arw" id="a13" transform="translate(250 250)rotate(45)"/><use href="#arw" id="a31" transform="translate(250 250)rotate(225)"/><use href="#arw" id="a14" transform="translate(0 250)rotate(90)"/><use href="#arw" id="a41" transform="translate(0 250)rotate(-90)"/><use href="#arw" id="a23" transform="translate(500 250)rotate(90)"/><use href="#arw" id="a32" transform="translate(500 250)rotate(-90)"/><use href="#arw" id="a24" transform="translate(250 250)rotate(-225)"/><use href="#arw" id="a42" transform="translate(250 250)rotate(-45)"/><use href="#arw" id="a34" transform="translate(250 500)rotate(180)"/><use href="#arw" id="a43" transform="translate(250 500)"/><path class="xtri" id="p123" d="M 291 0 583 212 471 554 z" transform="translate(800 70)"/><path class="xtri" id="p124" d="M 291 0 583 212 111 554 z" transform="translate(800 70)"/><path class="xtri" id="p125" d="M 291 0 583 212 0 212 z" transform="translate(800 70)"/><path class="xtri" id="p134" d="M 291 0 471 554 111 554 z" transform="translate(800 70)"/><path class="xtri" id="p135" d="M 291 0 471 554 0 212 z" transform="translate(800 70)"/><path class="xtri" id="p145" d="M 291 0 111 554 0 212 z" transform="translate(800 70)"/><path class="xtri" id="p234" d="M 583 212 471 554 111 554 z" transform="translate(800 70)"/><path class="xtri" id="p235" d="M 583 212 471 554 0 212 z" transform="translate(800 70)"/><path class="xtri" id="p245" d="M 583 212 111 554 0 212 z" transform="translate(800 70)"/><path class="xtri" id="p345" d="M 471 554 111 554 0 212 z" transform="translate(800 70)"/></defs><g transform="translate(0 0)"><use href="#p125"/><use href="#polygons"/><use href="#q13"/><use href="#a12"/><use href="#p25"/><use href="#p35"/><use href="#d12 "/></g><g transform="translate(1750 0)"><use href="#p125"/><use href="#polygons"/><use href="#q13"/><use href="#a21"/><use href="#p35"/><use href="#p25"/><use href="#d15"/></g><g transform="translate(0 700)"><use href="#p235"/><use href="#polygons"/><use href="#q13"/><use href="#a13"/><use href="#p35"/><use href="#p25"/><use href="#d23"/></g><g transform="translate(1750 700)"><use href="#p135"/><use href="#polygons"/><use href="#q13"/><use href="#a31"/><use href="#p13"/><use href="#p35"/><use href="#d15"/></g><g transform="translate(0 1400)"><use href="#p145"/><use href="#polygons"/><use href="#q13"/><use href="#a14"/><use href="#p13"/><use href="#p14"/><use href="#d45"/></g><g transform="translate(1750 1400)"><use href="#p145"/><use href="#polygons"/><use href="#q13"/><use href="#a41"/><use href="#p13"/><use href="#p14"/><use href="#d15"/></g><g transform="translate(0 2100)"><use href="#p123"/><use href="#polygons"/><use href="#q13"/><use href="#a23"/><use href="#p13"/><use href="#p35"/><use href="#d23"/></g><g transform="translate(1750 2100)"><use href="#p123"/><use href="#polygons"/><use href="#q13"/><use href="#a32"/><use href="#p13"/><use href="#p35"/><use href="#d12"/></g><g transform="translate(0 2800)"><use href="#p345"/><use href="#polygons"/><use href="#q13"/><use href="#a34"/><use href="#p13"/><use href="#p35"/><use href="#d45"/></g><g transform="translate(1750 2800)"><use href="#p234"/><use href="#polygons"/><use href="#q13"/><use href="#a43"/><use href="#p24"/><use href="#p25"/><use href="#d23"/></g><g transform="translate(0 3700)"><use href="#p125"/><use href="#polygons"/><use href="#q24"/><use href="#a12"/><use href="#p24"/><use href="#p25"/><use href="#d12"/></g><g transform="translate(1750 3700)"><use href="#p125"/><use href="#polygons"/><use href="#q24"/><use href="#a21"/><use href="#p24"/><use href="#p25"/><use href="#d15"/></g><g transform="translate(0 4400)"><use href="#p245"/><use href="#polygons"/><use href="#q24"/><use href="#a24"/><use href="#p24"/><use href="#p25"/><use href="#d45"/></g><g transform="translate(1750 4400)"><use href="#p124"/><use href="#polygons"/><use href="#q24"/><use href="#a42"/><use href="#p14"/><use href="#p24"/><use href="#d12"/></g><g transform="translate(0 5100)"><use href="#p145"/><use href="#polygons"/><use href="#q24"/><use href="#a14"/><use href="#p14"/><use href="#p24"/><use href="#d45"/></g><g transform="translate(1750 5100)"><use href="#p145"/><use href="#polygons"/><use href="#q24"/><use href="#a41"/><use href="#p14"/><use href="#p24"/><use href="#d15"/></g><g transform="translate(0 5800)"><use href="#p123"/><use href="#polygons"/><use href="#q24"/><use href="#a23"/><use href="#p13"/><use href="#p14"/><use href="#d23"/></g><g transform="translate(1750 5800)"><use href="#p123"/><use href="#polygons"/><use href="#q24"/><use href="#a32"/><use href="#p13"/><use href="#p14"/><use href="#d12"/></g><g transform="translate(0 6500)"><use href="#p345"/><use href="#polygons"/><use href="#q24"/><use href="#a34"/><use href="#p25"/><use href="#p35"/><use href="#d45"/></g><g transform="translate(1750 6500)"><use href="#p234"/><use href="#polygons"/><use href="#q24"/><use href="#a43"/><use href="#p14"/><use href="#p24"/><use href="#d23"/></g></svg>