<svg xmlns="http://www.w3.org/2000/svg" xml:space="preserve" version="1.1" enable-background="new 0 0 24 24" viewBox="0 0 24 24"><path fill="none" id="canvas_background" d="M-1-1h1662v799H-1z"/><g><g stroke="null" transform="rotate(-.219 12 12)" id="svg_1"><circle r="1.963" id="XMLID_1320_" fill="#FFF" cy="12" cx="4.468"/><circle r="1.963" id="XMLID_1319_" fill="#FFF" cy="4.483" cx="17.931"/><circle r="1.963" id="XMLID_1318_" fill="#FFF" cy="19.517" cx="17.931"/><path id="svg_2" opacity=".2" fill="#FFF" d="M17.931 17.737c.922 0 1.694.594 1.95 1.432-.158-.935-.97-1.63-1.95-1.63s-1.793.701-1.95 1.636a2.03 2.03 0 011.95-1.438z"/><path id="svg_3" opacity=".1" d="M17.931 21.297a2.024 2.024 0 01-1.95-1.432c.158.935.97 1.63 1.95 1.63s1.793-.701 1.95-1.636a2.03 2.03 0 01-1.95 1.438z"/><path id="svg_4" opacity=".2" fill="#FFF" d="M17.931 2.703c.922 0 1.694.594 1.95 1.432-.158-.935-.97-1.63-1.95-1.63s-1.793.701-1.95 1.636a2.03 2.03 0 011.95-1.438z"/><path id="svg_5" opacity=".1" d="M17.931 6.263a2.024 2.024 0 01-1.95-1.432c.158.935.97 1.63 1.95 1.63s1.793-.701 1.95-1.636a2.03 2.03 0 01-1.95 1.438z"/><path id="svg_6" fill="#FFF" d="M11.952 8.4a3.934 3.934 0 011.623-.356c2.052 0 3.719 1.564 3.92 3.56h4A7.885 7.885 0 0019.5 6.762c-.447.308-.986.49-1.569.49a2.774 2.774 0 01-2.772-2.77c0-.079.017-.153.024-.231a7.881 7.881 0 00-5.217.712l1.986 3.436z"/><path id="svg_7" fill="#FFF" d="M11.267 15.203c-.997-.718-1.651-1.881-1.651-3.203s.654-2.485 1.651-3.203L9.28 5.358A7.924 7.924 0 006 9.695c.746.497 1.24 1.344 1.24 2.305S6.746 13.808 6 14.305a7.925 7.925 0 003.28 4.337l1.987-3.439z"/><path id="svg_8" fill="#FFF" d="M15.16 19.517a2.774 2.774 0 012.771-2.77c.583 0 1.122.183 1.57.491a7.885 7.885 0 001.994-4.842h-4c-.201 1.996-1.868 3.56-3.92 3.56-.58 0-1.127-.131-1.623-.355l-1.986 3.436a7.881 7.881 0 005.217.712c-.007-.078-.024-.152-.024-.232z"/><path id="svg_9" opacity=".2" fill="#FFF" d="M15.163 4.446c.004-.066.014-.13.02-.195a7.881 7.881 0 00-5.217.712l.091.157a7.87 7.87 0 015.106-.674z"/><path id="svg_10" opacity=".2" fill="#FFF" d="M19.5 6.96c1.114 1.256 1.735 2.517 1.944 4.23l.05.414a7.984 7.984 0 00-.063-.686 7.888 7.888 0 00-1.93-4.156c-.448.308-.987.49-1.57.49 0 0 1.122.016 1.57-.292z"/><path id="svg_11" opacity=".1" d="M17.495 11.407c-.201-1.997-1.868-3.561-3.92-3.561-.58 0-1.127.131-1.623.355 0 0-1.957-3.253-1.986-3.238l1.986 3.436a3.934 3.934 0 011.623-.355c2.052 0 3.719 1.564 3.92 3.56h4c-.003-.066-.014-.131-.018-.197h-3.982z"/><path id="svg_12" opacity=".2" fill="#FFF" d="M9.28 5.556l1.91 3.304c.026-.02.05-.043.077-.063L9.28 5.358A7.924 7.924 0 006 9.695c.019.013.036.029.055.042A7.925 7.925 0 019.28 5.556z"/><path id="svg_13" opacity=".1" d="M6.055 14.263c-.02.013-.036.03-.056.042a7.925 7.925 0 003.281 4.337l1.987-3.439c-.027-.02-.051-.043-.078-.063L9.28 18.444a7.925 7.925 0 01-3.225-4.18z"/><path id="svg_14" opacity=".2" fill="#FFF" d="M13.575 16.154c2.052 0 3.719-1.564 3.92-3.56l3.986-.053c.005-.066.01-.079.014-.145h-4c-.201 1.996-1.868 3.56-3.92 3.56-.58 0-1.127-.131-1.623-.355l-1.986 3.436c.03.015 1.986-3.238 1.986-3.238a3.934 3.934 0 001.623.355z"/><path id="svg_15" opacity=".1" d="M10.025 18.936l-.059.101a7.881 7.881 0 005.217.712c-.006-.065-.016-.13-.02-.195a7.958 7.958 0 01-1.588.16c-1.266 0-2.489-.25-3.55-.778z"/><path id="svg_16" opacity=".1" d="M19.5 17.04a2.755 2.755 0 00-1.569-.491 2.774 2.774 0 00-2.772 2.77c0 .033-.001.045.003.077a2.758 2.758 0 012.77-2.65c.582 0 1.121.183 1.568.491a7.89 7.89 0 001.921-4.085c.036-.25.061-.501.074-.757l-.004.08a7.695 7.695 0 01-.061.549c-.228 1.544-.933 2.89-1.93 4.016z"/><path id="svg_17" opacity=".2" fill="#FFF" d="M4.468 10.22c.921 0 1.694.594 1.95 1.432-.158-.935-.97-1.63-1.95-1.63s-1.793.701-1.95 1.636a2.03 2.03 0 011.95-1.438z"/><path id="svg_18" opacity=".1" d="M4.468 13.78a2.024 2.024 0 01-1.95-1.432c.158.935.97 1.63 1.95 1.63s1.793-.701 1.95-1.636a2.03 2.03 0 01-1.95 1.438z"/></g></g></svg>