<svg xmlns="http://www.w3.org/2000/svg" xmlns:xlink="http://www.w3.org/1999/xlink" width="246.27" height="223.6" version="1.2" viewBox="0 0 184.7 167.7"><defs><path id="a" d="M3.61 2.62c0-.03 0-.06-.18-.24C2.06 1 1.7-1.06 1.7-2.72c0-1.9.42-3.8 1.76-5.17.14-.13.14-.15.14-.18 0-.08-.04-.11-.1-.11-.12 0-1.1.74-1.74 2.13a7.93 7.93 0 0 0-.69 3.32c0 .85.12 2.17.72 3.4a4.7 4.7 0 0 0 1.7 2.06c.07 0 .11-.04.11-.11Z"/><path id="b" d="M3.15-2.73c0-.85-.12-2.17-.72-3.4a4.7 4.7 0 0 0-1.7-2.05c-.06 0-.1.04-.1.1 0 .04 0 .06.2.26 1.07 1.08 1.69 2.81 1.69 5.1 0 1.86-.4 3.78-1.76 5.15-.14.13-.14.16-.14.19 0 .06.05.1.11.1.11 0 1.1-.73 1.74-2.12a8 8 0 0 0 .68-3.33Z"/><path id="g" d="M4-4.36h.94c.22 0 .33 0 .33-.22 0-.12-.11-.12-.3-.12h-.9l.23-1.25c.04-.22.2-1 .26-1.13.1-.2.28-.37.51-.37a.8.8 0 0 1 .54.2.6.6 0 0 0-.6.58c0 .26.2.39.41.39.29 0 .6-.24.6-.66 0-.5-.5-.75-.95-.75-.37 0-1.06.2-1.38 1.28-.07.22-.1.33-.36 1.7h-.76c-.2 0-.32 0-.32.22 0 .13.1.13.3.13h.72l-.82 4.3C2.25 1 2.07 2 1.51 2c-.05 0-.32 0-.53-.2a.6.6 0 0 0 .6-.59c0-.25-.2-.38-.4-.38-.29 0-.6.24-.6.65 0 .5.48.76.93.76.6 0 1.03-.65 1.23-1.06.35-.69.6-2 .6-2.09L4-4.36Z"/><path id="c" d="M3.64-3.3c.07-.28.32-1.28 1.08-1.28.06 0 .32 0 .55.14a.63.63 0 0 0-.52.59c0 .17.12.38.41.38a.6.6 0 0 0 .59-.63c0-.57-.64-.72-1.02-.72-.63 0-1.01.58-1.14.83a1.2 1.2 0 0 0-1.18-.83C1.28-4.82.65-3.42.65-3.14c0 .1.11.1.14.1.08 0 .12-.01.14-.11.37-1.16 1.09-1.43 1.46-1.43.2 0 .59.1.59.73 0 .34-.19 1.07-.6 2.6-.17.67-.55 1.13-1.03 1.13-.06 0-.31 0-.54-.14.27-.06.51-.29.51-.6 0-.29-.24-.37-.4-.37-.33 0-.6.28-.6.63 0 .5.54.72 1.02.72.72 0 1.11-.76 1.15-.83.13.4.52.83 1.18.83 1.12 0 1.74-1.4 1.74-1.68 0-.1-.1-.1-.13-.1-.1 0-.12.03-.14.11C4.78-.38 4.04-.12 3.69-.12c-.43 0-.6-.35-.6-.72 0-.24.06-.48.18-.96l.37-1.5Z"/><path id="d" d="M5.2-2.57c0-1.72-1.01-2.25-1.82-2.25-1.5 0-2.93 1.56-2.93 3.1C.45-.71 1.1.12 2.2.12c.7 0 1.48-.25 2.3-.92.15.58.5.92 1 .92.58 0 .92-.6.92-.77 0-.08-.07-.11-.14-.11s-.1.03-.14.1c-.2.54-.59.54-.6.54-.35 0-.35-.85-.35-1.11 0-.23 0-.25.11-.38a6.3 6.3 0 0 0 1.26-2.57c0-.02-.01-.1-.13-.1-.11 0-.11.03-.17.22-.2.69-.55 1.52-1.07 2.16v-.67Zm-.73 1.49a3.4 3.4 0 0 1-2.23.96c-.66 0-.99-.5-.99-1.19 0-.53.29-1.71.64-2.27.51-.8 1.1-1 1.48-1 1.08 0 1.08 1.43 1.08 2.28 0 .4 0 1.03.02 1.22Z"/><path id="e" d="M7.19-2.5c.18 0 .38 0 .38-.23s-.2-.22-.38-.22h-5.9c-.19 0-.38 0-.38.22s.2.22.38.22h5.9Z"/><path id="f" d="M2.33-5.3a1 1 0 0 0 .03-.12c0-.04-.03-.11-.13-.11l-.46.04-.45.03c-.17.02-.25.02-.25.17 0 .1.11.1.2.1.39 0 .39.06.39.13l-.04.18L.49-.34c-.04.12-.04.16-.04.17 0 .14.12.25.27.25.27 0 .33-.26.36-.37l.38-1.51c.44.05.97.2.97.65l-.02.16-.03.26c0 .47.35.81.8.81.34 0 .55-.25.65-.4.2-.3.32-.77.32-.82 0-.08-.06-.1-.12-.1-.1 0-.1.04-.14.19-.1.37-.31.9-.69.9-.2 0-.25-.17-.25-.38 0-.1 0-.2.05-.39 0-.03.04-.16.04-.24 0-.66-.82-.8-1.23-.86.3-.17.57-.44.66-.55.44-.43.8-.72 1.18-.72.1 0 .2.02.26.1-.43.06-.43.43-.43.44 0 .18.14.3.31.3.22 0 .46-.18.46-.5 0-.28-.2-.56-.6-.56-.45 0-.87.35-1.32.8-.46.45-.66.54-.8.6l.8-3.18Z"/></defs><defs><use xlink:href="#a" id="i"/><use xlink:href="#b" id="l"/><path id="k" d="M2.21-.01c0-.72-.27-1.15-.7-1.15a.56.56 0 0 0-.57.58c0 .3.22.58.58.58.13 0 .27-.04.38-.14l.05-.03c.01 0 .02 0 .02.16 0 .8-.38 1.46-.74 1.82-.12.12-.12.14-.12.18 0 .07.06.12.11.12.12 0 1-.84 1-2.12Z"/><path id="h" d="M4.78-.07a5.34 5.34 0 0 0 3.3-4.69c0-1.75-1.16-2.93-2.79-2.93C2.93-7.7.53-5.21.53-2.67.53-.87 1.76.24 3.33.24 3.6.24 3.97.2 4.4.08c-.05.67-.05.7-.05.84 0 .35 0 1.2.9 1.2 1.3 0 1.83-2 1.83-2.12 0-.08-.08-.1-.12-.1-.09 0-.1.05-.13.11-.26.78-.9 1.05-1.28 1.05-.5 0-.66-.3-.77-1.13ZM2.72-.15c-.85-.34-1.23-1.2-1.23-2.17 0-.76.29-2.3 1.12-3.48.8-1.12 1.82-1.62 2.62-1.62 1.09 0 1.88.85 1.88 2.31 0 1.1-.55 3.65-2.39 4.67-.05-.38-.16-1.17-.96-1.17-.57 0-1.1.54-1.1 1.1 0 .23.06.35.06.36Zm.67.12c-.15 0-.5 0-.5-.47 0-.44.42-.87.87-.87s.67.26.67.92c0 .17-.01.18-.12.22-.28.12-.61.2-.92.2Z"/><use xlink:href="#c" id="j"/><use xlink:href="#d" id="n"/><path id="o" d="M5.63-7.45c0-.01 0-.12-.14-.12-.17 0-1.2.1-1.39.12-.09.01-.15.06-.15.2s.1.14.26.14c.52 0 .55.07.55.18l-.04.22-.65 2.59c-.2-.4-.51-.7-1-.7-1.28 0-2.63 1.6-2.63 3.2C.44-.6 1.04.11 1.89.11 2.1.12 2.65.08 3.3-.7a1 1 0 0 0 .99.82c.38 0 .63-.25.8-.6.2-.4.33-1.06.33-1.08 0-.1-.1-.1-.13-.1-.1 0-.12.03-.15.19-.19.7-.38 1.35-.83 1.35-.3 0-.33-.28-.33-.5 0-.26.02-.34.07-.53l1.57-6.3ZM3.36-1.3c-.05.2-.05.22-.22.4-.48.6-.93.78-1.23.78-.55 0-.7-.6-.7-1.03 0-.54.35-1.88.6-2.38.34-.65.83-1.05 1.27-1.05.7 0 .86.9.86.96l-.03.18-.55 2.14Z"/><use xlink:href="#c" id="m"/><use xlink:href="#a" id="v"/><use xlink:href="#b" id="w"/><use xlink:href="#e" id="r"/><path id="t" d="M8.5-7.21a.28.28 0 0 0 .06-.15c0-.08 0-.1-.26-.1H.77c-.25 0-.26.02-.26.1 0 .04.04.12.06.15L4.24.15c.08.14.11.21.3.21s.22-.07.3-.2L8.5-7.22Zm-6.63.54h5.98l-2.98 6-3-6Z"/><use xlink:href="#f" id="q"/><use xlink:href="#d" id="s"/><use xlink:href="#g" id="u"/><use xlink:href="#c" id="p"/><use xlink:href="#f" id="y"/><use xlink:href="#c" id="x"/></defs><path fill="none" stroke="#0230ff" stroke-dasharray="2.38181,1.78585" stroke-linejoin="round" stroke-miterlimit="8" stroke-width=".59" d="m112.11 1.03 2.4 2.35 2.54 2.7 2.55 2.79 2.55 2.84 2.44 2.95 2.4 3 2.39 3.04 4.6 6.28 2.19 3.25 2.2 3.3 2.1 3.39 2.04 3.4 2 3.43 1.94 3.45 1.9 3.54 1.8 3.55 1.74 3.59 1.7 3.64 1.6 3.65 1.54 3.64 1.5 3.7 1.4 3.69 1.3 3.74 1.24 3.7 1.2 3.74 1.1 3.74 1 3.75.95 3.74.84 3.7.8 3.74.65 3.69.6 3.7.5 3.64.45 3.64.3 3.64.2 3.6.15 3.54.05 3.54-.1 3.45-.2 4.24-.4 4.1-.5 3.89-.7 3.8-.8 3.59-.95 3.44-1.04 3.3-.75 1.94m-92.09 0-1.15-1.1-2.64-2.6-2.55-2.7-2.55-2.73L62 154.8l-2.44-2.95-2.4-2.99-2.4-3.05-2.3-3.14-2.3-3.2-2.19-3.24-2.2-3.29-2.09-3.34-2.04-3.4-2-3.44-1.95-3.5-1.84-3.54-1.85-3.55-1.75-3.59-1.7-3.6-1.6-3.63-1.54-3.7-1.45-3.7-1.44-3.69-1.3-3.7-1.25-3.73-1.2-3.75-1.1-3.74-1-3.7-.94-3.74-.85-3.74-.8-3.7-.65-3.69-.6-3.69-.5-3.7-.4-3.64-.34-3.6-.2-3.58-.15-3.6v-3.5l.05-3.49.2-4.24.4-4.04.5-3.95.7-3.74.79-3.64.95-3.45 1.05-3.24.25-.65m70.72 9.44 2.55 2.34 2.54 2.44 2.5 2.6 2.44 2.75 2.4 2.84 2.4 2.95 2.34 3.04 2.25 3.14 2.24 3.25 2.2 3.3 2.15 3.39 2.04 3.5 2 3.54 1.95 3.6 1.84 3.63 1.85 3.7 1.7 3.69 1.64 3.8 1.6 3.74 1.45 3.84 1.4 3.8 1.34 3.79 1.2 3.84 1.15 3.8 1 3.79.95 3.79.8 3.74.7 3.75.6 3.69.5 3.6.4 3.59.24 3.54.15 3.45-.05 4.39-.2 4.09-.45 3.84-.65 3.6-.84 3.29-1 3.05-1.2 2.74-1.4 2.45-1.55 2.2-1.7 1.89-1.89 1.55-2 1.3-2.14 1-2.3.7-2.45.39-2.54.1-2.65-.25-2.74-.5-2.9-.9-2.94-1.15-3.1-1.5-3.14-1.84-3.2-2.14-3.29-2.5-3.34-2.8-2.55-2.34-2.54-2.5-2.5-2.6-2.44-2.69-2.4-2.84-2.4-2.95-2.34-3.04-2.25-3.15-2.24-3.24-2.2-3.35-2.1-3.39-2.1-3.44-1.99-3.54-1.95-3.6-1.84-3.64-1.8-3.7-1.75-3.74-1.64-3.74-1.6-3.8-1.45-3.8-1.4-3.79L46.88 74l-1.2-3.8-1.15-3.83-1-3.8-.95-3.8-.8-3.73-.7-3.7-.59-3.7-.5-3.64-.4-3.59-.25-3.5-.1-3.44v-4.39l.2-4.14.45-3.85.65-3.54.85-3.34 1-3 1.2-2.74 1.4-2.5 1.54-2.15 1.7-1.89 1.1-.9m26.2 0 .3.15 3.14 1.8 3.2 2.15 3.29 2.49 3.4 2.85"/><path fill="none" stroke="#0230ff" stroke-dasharray="2.38181,1.78585" stroke-linejoin="round" stroke-miterlimit="8" stroke-width=".59" d="m88.7 33.67 2.45 2.55 2.4 2.75 2.34 2.94 2.3 3.1 2.24 3.24 2.15 3.4 2.1 3.49 2 3.64 1.89 3.7 1.85 3.79 1.7 3.84 1.59 3.94 1.5 3.9 1.4 3.94 1.2 3.94 1.14 3.94.95 3.9.8 3.9.7 3.79.5 3.69.3 3.64.2 3.55-.05 4.29-.36 3.84-.64 3.5-.9 3.04-1.15 2.6-1.4 2.19-1.6 1.8-1.84 1.3-2 .85-2.24.44-2.35-.05-2.54-.5-2.7-1-2.85-1.44-2.94-1.95-3.05-2.4-3.14-2.94-2.45-2.54-2.39-2.75-2.35-2.95-2.3-3.09-2.24-3.24-2.15-3.4-2.1-3.5-1.99-3.64-1.9-3.69-1.84-3.8-1.7-3.83-1.6-3.9-1.5-3.94-1.34-3.94-1.25-3.95-1.1-3.94-1-3.9-.8-3.84-.64-3.79-.55-3.74-.3-3.65L57 47.3l.05-4.3.35-3.89.6-3.49.9-3.05 1.14-2.59 1.4-2.2 1.6-1.74 1.85-1.35 2-.85 2.24-.4h2.4l2.54.55 2.64.95 2.85 1.45 2.94 1.94 3.05 2.45 3.14 2.9"/><path fill="none" stroke="#3f0200" stroke-linejoin="round" stroke-miterlimit="8" stroke-width=".59" d="m99.43 1.03.95.75 2.9 2.5 2.84 2.54 2.8 2.6 2.8 2.69 2.74 2.75 2.74 2.8 2.65 2.89 2.64 2.94 2.6 3 2.54 3.04 2.5 3.1 2.45 3.2 2.39 3.19 2.35 3.24 2.3 3.3 2.24 3.34 2.15 3.34 2.14 3.4 2.05 3.44 2 3.44 1.94 3.5 1.85 3.5 1.8 3.54 1.74 3.54 1.65 3.54 1.6 3.6 1.5 3.59 1.44 3.6 1.35 3.59 1.3 3.59 1.2 3.6 1.1 3.64 1 3.6.94 3.54.85 3.59.74 3.54.66 3.54.6 3.55.44 3.5.4 3.49.3 4.2.15 4.08.05 3.95-.15 3.79-.3 3.7-.4 3.54-.6 3.44-.7 3.3-.8 3.09m-110.5.05-1.65-1.5-2.8-2.6-2.79-2.69-2.74-2.74-2.75-2.8-2.64-2.9-2.65-2.94-2.59-3-2.55-3.04-2.5-3.1-2.44-3.19-2.4-3.2-2.34-3.24-2.3-3.29-2.24-3.34-2.2-3.35-2.1-3.4-2.04-3.44-2-3.44-1.95-3.5-1.84-3.49-1.85-3.54-1.7-3.55-1.64-3.54-1.6-3.6-1.5-3.59-1.44-3.6L.86 77.9"/><path fill="none" stroke="#ff2300" stroke-linejoin="round" stroke-miterlimit="8" stroke-width=".59" d="m61.25 32.23 3.15 1.94 3 2.45 2.73 2.94 2.5 3.3 2.1 3.5 1.65 3.68 1.2 3.7.6 3.64-.06 3.75-.85 3.04-1.54 2.3-2.2 1.44-2.7.55-3.14-.35-3.5-1.34-3.14-1.95-2.94-2.5-2.8-2.89-2.45-3.3-2.09-3.54-1.7-3.64-1.15-3.7-.6-3.64.06-3.74.84-3.05 1.55-2.3 2.15-1.44 2.7-.55 3.14.35 3.5 1.35"/><path fill="none" stroke="#d41c00" stroke-linejoin="round" stroke-miterlimit="8" stroke-width=".59" d="m58.26 22.34 3.04 1.85 3.05 2.2 2.94 2.4 2.9 2.64 2.8 2.84 2.69 3 2.6 3.2 2.44 3.28 2.34 3.45 2.15 3.54 1.95 3.6 1.8 3.64 1.54 3.7 1.35 3.64L93 68.96l.85 3.65.6 3.54.3 4.04-.1 3.7-.5 3.34-.9 2.9-1.25 2.5-1.6 2.03-1.95 1.65-2.24 1.2-2.5.7-2.8.2-3.04-.25-3.24-.8-3.45-1.3-3.64-1.84-3.1-1.9-2.99-2.15-2.94-2.4-2.9-2.64-2.84-2.84-2.7-3.05-2.6-3.14-2.44-3.35-2.3-3.44-2.14-3.5-2-3.59-1.74-3.64-1.6-3.7-1.35-3.69-1.1-3.64-.85-3.6-.6-3.54-.3-4.09.05-3.7.55-3.29.85-2.9 1.3-2.49 1.6-2.1 1.95-1.6 2.19-1.19 2.55-.7 2.79-.2 3 .25 3.29.8 3.44 1.3 3.65 1.84"/><path fill="none" stroke="#a81400" stroke-linejoin="round" stroke-miterlimit="8" stroke-width=".59" d="m61.15 7.87 2.95 2 2.94 2.1 2.9 2.29 2.94 2.4 2.85 2.54 2.84 2.7 2.8 2.84 2.74 2.94 2.75 3.05 2.64 3.1 2.6 3.24 2.5 3.3 2.49 3.38 2.34 3.45 2.3 3.5 2.2 3.54 2.14 3.6 2 3.63 1.9 3.65 1.8 3.64 1.64 3.65 1.55 3.69 1.44 3.64 1.3 3.6 1.15 3.64 1 3.54.85 3.55.7 3.44.64 4.24.35 4 .05 3.74-.15 3.44-.44 3.2-.7 2.94-.95 2.65-1.2 2.34-1.4 2.05-1.65 1.75-1.84 1.5-2.05 1.14-2.24.85-2.45.5-2.6.2-2.8-.1-2.98-.45-3.15-.8-3.24-1.14-3.45-1.5-3.54-1.8-3.7-2.2-2.94-2-2.95-2.09-2.94-2.24-2.9-2.45-2.84-2.54-2.84-2.7-2.8-2.84-2.8-2.95-2.69-3-2.65-3.14-2.59-3.24-2.55-3.3-2.44-3.4-2.35-3.44-2.3-3.5-2.24-3.53-2.1-3.6-2-3.64-1.89-3.64-1.8-3.65-1.7-3.64-1.54-3.7-1.4-3.64-1.3-3.6-1.14-3.64-1-3.54-.85-3.5-.7-3.49-.65-4.24-.35-4-.05-3.74.15-3.44.45-3.2.7-2.94.95-2.64 1.2-2.35 1.4-2.05 1.64-1.75 1.85-1.5L31 1.44l1.14-.4m14.13 0 .9.2 3.29 1.15 3.45 1.5 3.54 1.84 3.7 2.15"/><path fill="none" stroke="#780a00" stroke-linejoin="round" stroke-miterlimit="8" stroke-width=".59" d="m68.24 1.03 2.44 1.75 2.95 2.24 2.9 2.35 2.89 2.5 2.9 2.54 2.84 2.65 2.8 2.74 2.8 2.85 2.73 2.89 2.7 3 2.65 3.09 2.64 3.14 2.54 3.2 2.55 3.3 2.45 3.29 2.4 3.4 2.34 3.38 2.3 3.5 2.2 3.5 2.14 3.54 2.1 3.54 1.99 3.6 1.9 3.59 1.84 3.64 1.75 3.65 1.7 3.64 1.54 3.64 1.5 3.64 1.4 3.65 1.3 3.6 1.14 3.64 1.1 3.54.95 3.6.85 3.49.75 3.5.65 3.48.6 4.25.4 4.1.2 3.89v3.69l-.2 3.54-.4 3.3-.6 3.14-.75 2.95-.95 2.7-1.1 2.53-1.3 2.3-1.44 2.1-1.6 1.9-1.8 1.64-1.9 1.5-2.09 1.2-2.2 1-2.34.8-2.5.55-2.64.3-2.75.1-2.9-.16-2.99-.4-3.1-.65-3.24-.9-3.3-1.14-3.43-1.4-3.55-1.65-3.64-1.9-3.7-2.19-2.99-1.9-2.94-2-2.95-2.09-2.94-2.24-2.9-2.35-2.9-2.5-2.89-2.54-2.8-2.64-2.84-2.75-2.74-2.85-2.75-2.9-2.74-2.99-2.65-3.1-2.6-3.13-2.59-3.2-2.5-3.3-2.5-3.29-2.39-3.4-2.34-3.39-2.3-3.49-2.2-3.5-2.14-3.54-2.1-3.54-2-3.6-1.9-3.64-1.84-3.6-1.75-3.63-1.7-3.65-1.54-3.64-1.5-3.65-1.4-3.64-1.24-3.6-1.2-3.64-1.1-3.54-.94-3.6-.86-3.54-.74-3.5-.6-3.44L6 29.63l-.4-4.09-.15-3.9v-3.69l.2-3.54.35-3.3.6-3.14.75-2.95.94-2.7.6-1.29"/><path fill="none" stroke="#000" stroke-linecap="round" stroke-linejoin="round" stroke-miterlimit="8" stroke-width=".59" d="M.8.8h183.08v166H.8Z"/><path fill="none" stroke="#00f800" stroke-linejoin="round" stroke-miterlimit="8" stroke-width=".89" d="m53.92 110.04 63.33-27.4"/><path fill="#00f800" fill-rule="evenodd" d="m53.97 107.84-2.8 3.35 4.34.25-1.65-1.45zm0 0"/><path fill="none" stroke="#911e91" stroke-linejoin="round" stroke-miterlimit="8" stroke-width=".89" d="m90.5 72.45 26.45 8.94"/><path fill="#911e91" fill-rule="evenodd" d="m92.05 70.9-4.35.6 3.05 3.1-.3-2.2zm0 0"/><path fill="none" stroke="#0230ff" stroke-dasharray="2.38181,1.78585" stroke-linejoin="round" stroke-miterlimit="8" stroke-width=".59" d="m87.76 52.04 2.64 2.55 2.45 3 2.24 3.29 2.05 3.59 1.8 3.74 1.5 3.9 1.19 3.94.8 3.94.5 3.8.05 3.69-.55 4-1.15 3.18-1.65 2.35-2.14 1.45-2.55.55-2.84-.4-3.1-1.4-3.24-2.4-2.65-2.54-2.44-2.95-2.25-3.29-2.04-3.6-1.8-3.78-1.5-3.9-1.2-3.94-.8-3.9-.5-3.84v-3.64l.5-4.04 1.15-3.2 1.65-2.35 2.14-1.44 2.55-.5 2.85.4 3.09 1.35 3.25 2.39"/><circle cx="117.25" cy="82.01" r="1.37" fill="#000082" stroke="#000" stroke-linecap="round" stroke-width=".26"/><g fill="maroon" transform="matrix(1.13 0 0 1.13 -49.1 -59.19)"><use xlink:href="#g" width="100%" height="100%" x="56.41" y="65.75"/><use xlink:href="#a" width="100%" height="100%" x="62.93" y="65.75"/><use xlink:href="#c" width="100%" height="100%" x="67.17" y="65.75"/><use xlink:href="#b" width="100%" height="100%" x="73.41" y="65.75"/></g><g fill="#00f" transform="matrix(1.13 0 0 1.13 76.28 -44.17)"><use xlink:href="#h" width="100%" height="100%" x="56.41" y="65.75"/><use xlink:href="#i" width="100%" height="100%" x="65.04" y="65.75"/><use xlink:href="#j" width="100%" height="100%" x="69.28" y="65.75"/><use xlink:href="#k" width="100%" height="100%" x="75.51" y="65.75"/><use xlink:href="#d" width="100%" height="100%" x="80.36" y="65.75"/><use xlink:href="#l" width="100%" height="100%" x="87.38" y="65.75"/></g><g fill="purple" transform="matrix(1.13 0 0 1.13 -19.74 -1.88)"><use xlink:href="#m" width="100%" height="100%" x="56.41" y="65.75"/><use xlink:href="#f" width="100%" height="100%" x="62.65" y="61.25"/><use xlink:href="#e" width="100%" height="100%" x="70.19" y="65.75"/><use xlink:href="#n" width="100%" height="100%" x="81.1" y="65.75"/><use xlink:href="#o" width="100%" height="100%" x="88.12" y="65.75"/><use xlink:href="#f" width="100%" height="100%" x="93.8" y="61.25"/></g><g fill="green" transform="matrix(1.13 0 0 1.13 -54.5 45.9)"><use xlink:href="#p" width="100%" height="100%" x="56.41" y="65.75"/><use xlink:href="#q" width="100%" height="100%" x="62.65" y="61.25"/><use xlink:href="#r" width="100%" height="100%" x="70.19" y="65.75"/><use xlink:href="#s" width="100%" height="100%" x="81.1" y="65.75"/><use xlink:href="#t" width="100%" height="100%" x="88.12" y="65.75"/><use xlink:href="#u" width="100%" height="100%" x="97.21" y="65.75"/><use xlink:href="#v" width="100%" height="100%" x="103.73" y="65.75"/><use xlink:href="#p" width="100%" height="100%" x="107.97" y="65.75"/><use xlink:href="#q" width="100%" height="100%" x="114.2" y="61.25"/><use xlink:href="#w" width="100%" height="100%" x="119.32" y="65.75"/></g><g fill="navy" transform="matrix(1.13 0 0 1.13 55.2 12.88)"><use xlink:href="#x" width="100%" height="100%" x="56.41" y="65.75"/><use xlink:href="#y" width="100%" height="100%" x="62.65" y="61.25"/></g></svg>